<svg width="100" height="99" viewBox="0 0 200 99" fill="none" xmlns="http://www.w3.org/2000/svg">
<path d="M47.1 95.1001C48.4 95.5001 49.7 95.8 51.2 96C52.6 96.2 54.5 96.2002 56.9 96.2002C59.3 96.2002 61.7 95.5998 64.2 94.2998C66.7 92.9998 68.7 91.4998 70.2 89.7998C71.7 88.0998 73 86.2001 74.1 84.1001C75.5 81.6001 76.6 79.1001 77.3 76.6001L80 77.5C78 83.9 74.9 88.9998 70.6 92.7998C66.3 96.5998 61.4 98.5 55.7 98.5C51.2 98.5 48.2 98.2 46.5 97.5C44.8 96.9 43.6 96.3998 42.8 96.2998C42 96.0998 41 95.5001 39.8 94.6001C38.6 93.7001 37.8 93.1 37.6 93C37 92.5 35.4 91.1001 32.9 88.6001C28.1 91.5001 22.8 92.8999 17.2 92.8999C11.6 92.8999 7.30002 92.0002 4.40002 90.2002C1.40002 88.4002 0 86.2 0 83.5C0 80.8 1.09995 78.7 3.19995 77C5.29995 75.3 8.60002 74.6001 12.9 74.6001C18.8 74.6001 24.1 76.8002 28.8 81.2002C29.7 78.4002 30.5 75.2999 31.1 71.8999L38.7 28C40.5 16.6 44.5 9.0001 50.5 5.1001C55.8 1.7001 61.8 0 68.5 0C75.2 0 80.7 1.8998 85 5.7998C89.3 9.6998 91.4 15.8001 91.4 24.1001H88.7C88.7 17.4001 87.1 12.2002 83.9 8.7002C80.7 5.2002 76.6 3.3999 71.7 3.3999C62.7 3.3999 57.4 9.0002 55.7 20.2002C55.7 21.4002 54.7 27.5999 52.8 38.8999C50.9 50.0999 49.1 59.3998 47.6 66.7998C46 75.6998 41.8 82.4998 34.9 87.2998C39 91.3998 42 93.6998 44 94.2998C44.8 94.2998 45.8 94.7001 47.1 95.1001ZM21 78.3999C18.8 77.1999 16.1 76.6001 13 76.6001C9.9 76.6001 7.4 77.1999 5.5 78.3999C3.6 79.5999 2.69995 81.1999 2.69995 83.3999C2.69995 85.5999 3.90002 87.3001 6.40002 88.6001C8.90002 89.9001 11.8 90.6001 15.1 90.6001C18.4 90.6001 21.4 90.3002 24 89.7002C25.5 88.3002 26.8 86.3001 28 83.6001C25.5 81.3001 23.2 79.5999 21 78.3999Z" fill="#FBBA00"/>
<path d="M85.6997 27.5C87.6997 27.2 90.1998 27 92.8998 27C97.3998 27 100.3 27.8 102.6 29.5C105.1 31.3 106.6 34.1999 106.6 38.3999C106.6 42.8999 104.9 46.1 102.7 48C100.2 50.1 96.3998 51.1001 91.7998 51.1001C88.9998 51.1001 87.0997 50.9002 85.6997 50.7002V27.5ZM91.0997 46.7998C91.5997 46.8998 92.2998 46.8999 92.9998 46.8999C97.7998 46.8999 101 44.3001 101 38.6001C101 33.7001 98.1997 31.1001 93.5997 31.1001C92.3997 31.1001 91.5997 31.1998 91.1997 31.2998V46.7998H91.0997Z" fill="#00307B"/>
<path d="M124.3 40.8999H115.6V46.5H125.3V50.8999H110.2V27.2002H124.8V31.6001H115.6V36.5H124.3V40.8999Z" fill="#00307B"/>
<path d="M146.3 50.2002C145.3 50.7002 143.1 51.2002 140.2 51.2002C132 51.2002 127.8 46.0999 127.8 39.3999C127.8 31.2999 133.6 26.7998 140.7 26.7998C143.5 26.7998 145.6 27.3999 146.5 27.8999L145.4 32.2002C144.3 31.7002 142.8 31.2998 140.9 31.2998C136.6 31.2998 133.3 33.9001 133.3 39.1001C133.3 43.8001 136.1 46.7998 140.9 46.7998C142.5 46.7998 144.3 46.4 145.4 46L146.3 50.2002Z" fill="#00307B"/>
<path d="M170.5 38.7998C170.5 46.5998 165.8 51.2998 158.9 51.2998C151.9 51.2998 147.8 46.0002 147.8 39.2002C147.8 32.1002 152.3 26.7998 159.3 26.7998C166.5 26.7998 170.5 32.2998 170.5 38.7998ZM153.4 39.1001C153.4 43.7001 155.6 47 159.2 47C162.8 47 164.9 43.6 164.9 39C164.9 34.7 162.9 31.1001 159.2 31.1001C155.5 31.1001 153.4 34.5001 153.4 39.1001Z" fill="#00307B"/>
<path d="M194 41.7998C193.9 38.9998 193.8 35.5001 193.8 32.1001H193.7C193 35.1001 192 38.4998 191.1 41.2998L188.2 50.5H184L181.5 41.2998C180.7 38.4998 179.9 35.1001 179.4 32.1001H179.3C179.2 35.3001 179.1 38.9999 178.9 41.8999L178.5 50.8999H173.5L175 27.2002H182.1L184.4 35.1001C185.1 37.8001 185.9 40.8001 186.4 43.6001H186.5C187.2 40.9001 188 37.7001 188.7 35.1001L191.2 27.2002H198.2L199.5 50.8999H194.3L194 41.7998Z" fill="#00307B"/>
<path d="M85.9999 61.7998H87.6998L85.3999 74H90.8999L90.5999 75.5H83.3999L85.9999 61.7998Z" fill="#00307B"/>
<path d="M92.2999 75.3999L94.9999 61.1001H96.6998L93.9999 75.3999H92.2999Z" fill="#00307B"/>
<path d="M103.4 75.3999C103.4 74.7999 103.5 73.8999 103.6 72.8999C102.5 74.8999 101.2 75.6001 99.7999 75.6001C98.0999 75.6001 96.9999 74.1999 96.9999 72.3999C96.9999 68.9999 99.4999 65.3999 103.8 65.3999C104.7 65.3999 105.8 65.5998 106.4 65.7998L105.4 70.8999C105.1 72.5999 104.9 74.2999 105 75.3999H103.4ZM104.5 66.8999C104.3 66.7999 103.9 66.7998 103.3 66.7998C100.8 66.7998 98.6998 69.4002 98.6998 72.2002C98.6998 73.3002 99.0999 74.3999 100.4 74.3999C101.8 74.3999 103.5 72.6 103.9 70L104.5 66.8999Z" fill="#00307B"/>
<path d="M107.4 75.3999L108.7 68.5C108.9 67.4 109 66.5002 109.2 65.7002H110.7L110.5 67.6001C111.4 66.2001 112.7 65.5 114.1 65.5C115.3 65.5 116.6 66.2002 116.6 68.2002C116.6 68.6002 116.5 69.2998 116.4 69.7998L115.3 75.5H113.6L114.7 69.8999C114.8 69.4999 114.8 69.1001 114.8 68.6001C114.8 67.6001 114.4 66.8999 113.3 66.8999C112.1 66.8999 110.4 68.2998 110 70.7998L109.1 75.5H107.4V75.3999Z" fill="#00307B"/>
<path d="M124.7 75.3999C124.7 74.7999 124.8 73.8999 124.9 72.8999C123.8 74.8999 122.5 75.6001 121.1 75.6001C119.4 75.6001 118.3 74.1999 118.3 72.3999C118.3 68.9999 120.8 65.3999 125.1 65.3999C126 65.3999 127.1 65.5998 127.7 65.7998L126.7 70.8999C126.4 72.5999 126.2 74.2999 126.3 75.3999H124.7ZM125.8 66.8999C125.6 66.7999 125.2 66.7998 124.6 66.7998C122.1 66.7998 120 69.4002 120 72.2002C120 73.3002 120.4 74.3999 121.7 74.3999C123.1 74.3999 124.8 72.6 125.2 70L125.8 66.8999Z" fill="#00307B"/>
<path d="M139.2 61.1001L137.1 72.3999C136.9 73.3999 136.7 74.5 136.7 75.5H135.2L135.5 73.6001C134.6 75.0001 133.4 75.7998 132 75.7998C130.1 75.7998 129.1 74.2002 129.1 72.2002C129.1 68.7002 131.7 65.5 135.1 65.5C135.7 65.5 136.4 65.5998 136.8 65.7998L137.7 61.1001H139.2ZM136.4 67.2002C136.1 67.0002 135.5 66.7998 134.8 66.7998C132.5 66.7998 130.6 69.2999 130.6 71.8999C130.6 73.0999 131 74.2998 132.4 74.2998C133.7 74.2998 135.2 72.8001 135.7 70.6001L136.4 67.2002Z" fill="#00307B"/>
<path d="M139.4 75.3999L141.3 65.6001H143L141.1 75.3999H139.4ZM141.6 62.8999C141.6 62.2999 142.1 61.7998 142.7 61.7998C143.3 61.7998 143.7 62.1999 143.7 62.8999C143.7 63.5999 143.2 64 142.6 64C141.9 63.9 141.6 63.4999 141.6 62.8999Z" fill="#00307B"/>
<path d="M148.4 63L147.9 65.6001H150.2L149.9 66.8999H147.6L146.7 71.6001C146.6 72.1001 146.5 72.6002 146.5 73.2002C146.5 73.8002 146.8 74.1001 147.4 74.1001C147.7 74.1001 148 74.1 148.2 74L148.1 75.2998C147.8 75.3998 147.3 75.5 146.8 75.5C145.3 75.5 144.7 74.6001 144.7 73.6001C144.7 73.0001 144.8 72.4998 144.9 71.7998L145.9 66.8999H144.5L144.8 65.6001H146.2L146.6 63.3999L148.4 63Z" fill="#00307B"/>
<path d="M156.8 75.3999C156.8 74.7999 156.9 73.8999 157 72.8999C155.9 74.8999 154.6 75.6001 153.2 75.6001C151.5 75.6001 150.4 74.1999 150.4 72.3999C150.4 68.9999 152.9 65.3999 157.2 65.3999C158.1 65.3999 159.2 65.5998 159.8 65.7998L158.8 70.8999C158.5 72.5999 158.3 74.2999 158.4 75.3999H156.8ZM157.9 66.8999C157.7 66.7999 157.3 66.7998 156.7 66.7998C154.2 66.7998 152.1 69.4002 152.1 72.2002C152.1 73.3002 152.5 74.3999 153.8 74.3999C155.2 74.3999 156.9 72.6 157.3 70L157.9 66.8999Z" fill="#00307B"/>
<path d="M161 73.7002C161.5 74.0002 162.3 74.2998 163.1 74.2998C164.2 74.2998 165 73.6002 165 72.7002C165 71.9002 164.7 71.4999 163.6 70.8999C162.5 70.2999 161.8 69.3999 161.8 68.3999C161.8 66.6999 163.3 65.3999 165.3 65.3999C166.2 65.3999 167 65.5999 167.3 65.8999L166.8 67.2002C166.5 67.0002 165.8 66.7998 165.1 66.7998C164.1 66.7998 163.4 67.3998 163.4 68.2998C163.4 68.9998 163.9 69.4999 164.7 69.8999C165.8 70.4999 166.5 71.4 166.5 72.5C166.5 74.6 164.8 75.7002 162.8 75.7002C161.7 75.7002 160.8 75.4 160.4 75L161 73.7002Z" fill="#00307B"/>
</svg>
