<svg width="369" height="60" viewBox="0 0 369 60" fill="none" xmlns="http://www.w3.org/2000/svg">
<path d="M28.2001 57.7002C29.0001 57.9002 29.8001 58.1002 30.7001 58.2002C31.6001 58.3002 32.7001 58.3003 34.2001 58.3003C35.7001 58.3003 37.1001 57.9001 38.6001 57.1001C40.1001 56.3001 41.3001 55.4004 42.2001 54.4004C43.1001 53.4004 43.9001 52.2004 44.6001 50.9004C45.5001 49.4004 46.1 47.9004 46.5 46.4004L48.1001 46.9004C46.9001 50.8004 45 53.9001 42.5 56.1001C39.9 58.4001 36.9 59.5 33.5 59.5C30.8 59.5 28.9 59.3004 27.9 58.9004C26.9 58.5004 26.1001 58.3001 25.7001 58.1001C25.2001 58.0001 24.6 57.6001 23.9 57.1001C23.1 56.5001 22.7001 56.2001 22.6001 56.1001C22.2001 55.8001 21.3 54.9004 19.8 53.4004C16.9 55.1004 13.7 56 10.4 56C7.00002 56 4.40007 55.5004 2.70007 54.4004C0.900073 53.3004 0 52.0004 0 50.4004C0 48.8004 0.7 47.5 2 46.5C3.3 45.5 5.30002 45 7.90002 45C11.5 45 14.7 46.3 17.5 49C18 47.3 18.5 45.4004 18.9 43.4004L23.5 16.9004C24.6 10.1004 27.0001 5.4001 30.6001 3.1001C33.8001 1.0001 37.4 0 41.5 0C45.6 0 48.9 1.2 51.5 3.5C54.1 5.8 55.4 9.5 55.4 14.5H53.8C53.8 10.4 52.8 7.3002 50.9 5.2002C49 3.1002 46.5 2 43.5 2C38.1 2 34.8 5.4001 33.8 12.1001C33.8 12.8001 33.2001 16.6004 32.1001 23.4004C30.9001 30.2004 29.9 35.8002 29 40.2002C28 45.5002 25.5 49.7001 21.3 52.6001C23.8 55.1001 25.6 56.5003 26.8 56.8003C26.8 57.3003 27.4001 57.5002 28.2001 57.7002ZM12.5 47.7002C11.2 47.0002 9.60007 46.6001 7.70007 46.6001C5.80007 46.6001 4.30007 47.0002 3.20007 47.7002C2.10007 48.4002 1.5 49.4002 1.5 50.7002C1.5 52.0002 2.20007 53.0003 3.70007 53.8003C5.20007 54.6003 6.90002 55 8.90002 55C10.9 55 12.7001 54.8 14.2001 54.5C15.1001 53.7 15.9001 52.4003 16.6001 50.8003C15.2001 49.4003 13.8 48.4002 12.5 47.7002Z" fill="white"/>
<path d="M66.1001 43.4004C65.5001 44.2004 64.7001 44.9 63.7001 45.5C62.7001 46.1 61.3001 46.5 59.7001 46.5C58.1001 46.5 56.7 46.0004 55.5 44.9004C54.4 43.9004 53.8 42.4 53.8 40.5C53.8 40.1 53.8 39.5002 53.9 38.7002L58.3 14.1001C59.1 9.6001 60.3001 6.40039 61.7001 4.40039C63.1001 2.40039 65 1.5 67.4 1.5C69 1.5 70.4 2.10029 71.5 3.30029C72.6 4.50029 73.1001 6.40039 73.1001 8.90039C73.1001 11.4004 72.1001 15.0001 70.2001 19.6001C68.3001 24.3001 67.3 27.7003 67.3 29.8003H66.1001C66.1001 27.4003 67.1 23.9004 69 19.4004C70.9 14.9004 71.9 11.3001 71.9 8.6001C71.9 7.0001 71.5 5.50039 70.8 4.40039C70 3.20039 69.1 2.6001 68 2.6001C68 3.8001 67.2001 9.1001 65.6001 18.6001C64.1001 28.1001 62.6 36.9 61 45C62.3 45 63.5001 44.3 64.6001 43C65.7001 41.7 66.5 40.4 66.9 39L67.7001 36.9004L68.9 37.4004C68.8 38.0004 68.4 39.0002 67.8 40.2002C67.3 41.6002 66.7001 42.6004 66.1001 43.4004Z" fill="white"/>
<path d="M93.5 2.90039V29.5H87.5V2.90039H93.5Z" fill="white"/>
<path d="M98.8 3.30029C100.7 3.00029 103.3 2.7002 106.9 2.7002C110.6 2.7002 113.3 3.40029 115 4.80029C116.7 6.10029 117.8 8.4 117.8 11C117.8 13.6 116.9 15.8003 115.4 17.3003C113.3 19.2003 110.3 20.1001 106.7 20.1001C105.9 20.1001 105.2 20.1 104.6 20V29.5H98.6001V3.30029H98.8ZM104.7 15.4004C105.2 15.5004 105.8 15.6001 106.7 15.6001C109.9 15.6001 111.9 14.0003 111.9 11.3003C111.9 8.90029 110.2 7.40039 107.2 7.40039C106 7.40039 105.1 7.5001 104.7 7.6001V15.4004Z" fill="white"/>
<path d="M127.7 2.90039V18.2002C127.7 22.8002 129.4 25.1001 132.5 25.1001C135.7 25.1001 137.4 22.9002 137.4 18.2002V2.90039H143.4V17.8003C143.4 26.0003 139.3 29.9004 132.3 29.9004C125.6 29.9004 121.6 26.2002 121.6 17.7002V2.80029H127.7V2.90039Z" fill="white"/>
<path d="M168.2 28.8003C167.1 29.4003 164.6 29.9004 161.4 29.9004C152.2 29.9004 147.5 24.2001 147.5 16.6001C147.5 7.5001 154 2.5 162 2.5C165.1 2.5 167.5 3.1002 168.6 3.7002L167.4 8.5C166.2 8 164.5 7.5 162.3 7.5C157.5 7.5 153.8 10.4003 153.8 16.3003C153.8 21.6003 157 25 162.3 25C164.1 25 166.1 24.6001 167.3 24.1001L168.2 28.8003Z" fill="white"/>
<path d="M180.1 2.90039H186.1V24.5H196.7V29.6001H180.1V2.90039Z" fill="white"/>
<path d="M200.3 2.90039H206.3V24.5H216.9V29.6001H200.3V2.90039Z" fill="white"/>
<path d="M231.5 29.6001L231.1 27.7002H231C229.7 29.2002 227.8 30.1001 225.5 30.1001C221.6 30.1001 219.3 27.3002 219.3 24.2002C219.3 19.2002 223.8 16.8003 230.6 16.8003V16.5C230.6 15.5 230 14 227.1 14C225.1 14 223 14.7 221.8 15.5L220.7 11.6001C222 10.8001 224.7 9.90039 228.2 9.90039C234.6 9.90039 236.7 13.7002 236.7 18.2002V24.9004C236.7 26.8004 236.8 28.5001 237 29.6001H231.5ZM230.7 20.4004C227.5 20.4004 225.1 21.1004 225.1 23.4004C225.1 24.9004 226.1 25.7002 227.5 25.7002C229 25.7002 230.2 24.7 230.6 23.5C230.7 23.2 230.7 22.8 230.7 22.5V20.4004Z" fill="white"/>
<path d="M241.3 16.4004C241.3 14.0004 241.2 11.9002 241.1 10.2002H246.3L246.6 12.8003H246.7C247.5 11.6003 249.5 9.7002 252.7 9.7002C256.7 9.7002 259.6 12.3 259.6 18V29.5H253.6V18.8003C253.6 16.3003 252.7 14.6001 250.6 14.6001C248.9 14.6001 248 15.7004 247.6 16.9004C247.4 17.3004 247.4 17.8004 247.4 18.4004V29.5H241.4V16.4004H241.3Z" fill="white"/>
<path d="M275.5 29.6001L275.1 27.7002H275C273.7 29.2002 271.8 30.1001 269.5 30.1001C265.6 30.1001 263.3 27.3002 263.3 24.2002C263.3 19.2002 267.8 16.8003 274.6 16.8003V16.5C274.6 15.5 274 14 271.1 14C269.1 14 267 14.7 265.8 15.5L264.7 11.6001C266 10.8001 268.7 9.90039 272.2 9.90039C278.6 9.90039 280.7 13.7002 280.7 18.2002V24.9004C280.7 26.8004 280.8 28.5001 281 29.6001H275.5ZM274.8 20.4004C271.6 20.4004 269.2 21.1004 269.2 23.4004C269.2 24.9004 270.2 25.7002 271.6 25.7002C273.1 25.7002 274.3 24.7 274.7 23.5C274.8 23.2 274.8 22.8 274.8 22.5V20.4004Z" fill="white"/>
<path d="M304.1 1.5V23.8003C304.1 26.0003 304.2 28.3001 304.3 29.6001H299L298.7 26.8003H298.6C297.4 29.0003 295 30.1001 292.6 30.1001C288 30.1001 284.3 26.2002 284.3 20.2002C284.3 13.7002 288.3 9.90039 293 9.90039C295.4 9.90039 297.2 10.7001 298.1 12.1001H298.2V1.6001H304.1V1.5ZM298.1 18.4004C298.1 18.1004 298.1 17.6003 298 17.3003C297.6 15.7003 296.3 14.3003 294.5 14.3003C291.8 14.3003 290.4 16.7003 290.4 19.8003C290.4 23.1003 292 25.1001 294.5 25.1001C296.2 25.1001 297.6 23.9002 298 22.2002C298.1 21.8002 298.2 21.3003 298.2 20.8003V18.4004H298.1Z" fill="white"/>
<path d="M315.1 4.90039C315.1 6.60039 313.8 7.90039 311.9 7.90039C310 7.90039 308.7 6.60039 308.8 4.90039C308.8 3.20039 310 1.90039 312 1.90039C314 1.90039 315 3.10039 315.1 4.90039ZM308.9 29.6001V10.2002H314.9V29.5H308.9V29.6001Z" fill="white"/>
<path d="M326.4 4.7002V10.2002H330.7V14.6001H326.4V21.6001C326.4 23.9001 327 25 328.8 25C329.6 25 330.1 24.9003 330.6 24.8003V29.3003C329.8 29.6003 328.4 29.8003 326.7 29.8003C324.8 29.8003 323.1 29.1001 322.2 28.1001C321.1 27.0001 320.5 25.1004 320.5 22.4004V14.5H317.9V10.1001H320.5V5.90039L326.4 4.7002Z" fill="white"/>
<path d="M345.2 29.6001L344.8 27.7002H344.7C343.4 29.2002 341.5 30.1001 339.2 30.1001C335.3 30.1001 333 27.3002 333 24.2002C333 19.2002 337.5 16.8003 344.3 16.8003V16.5C344.3 15.5 343.7 14 340.8 14C338.8 14 336.7 14.7 335.5 15.5L334.4 11.6001C335.7 10.8001 338.4 9.90039 341.9 9.90039C348.3 9.90039 350.4 13.7002 350.4 18.2002V24.9004C350.4 26.8004 350.5 28.5001 350.7 29.6001H345.2ZM344.5 20.4004C341.3 20.4004 338.9 21.1004 338.9 23.4004C338.9 24.9004 339.9 25.7002 341.3 25.7002C342.8 25.7002 344 24.7 344.4 23.5C344.5 23.2 344.5 22.8 344.5 22.5V20.4004Z" fill="white"/>
<path d="M355 24.3003C356.1 25.0003 358.4 25.8003 360.2 25.8003C362 25.8003 362.8 25.2002 362.8 24.2002C362.8 23.2002 362.2 22.7 360 22C356 20.7 354.5 18.5002 354.5 16.2002C354.5 12.6002 357.6 9.90039 362.4 9.90039C364.7 9.90039 366.7 10.4 367.9 11L366.8 15.1001C365.9 14.6001 364.3 14 362.6 14C361.1 14 360.3 14.6001 360.3 15.6001C360.3 16.5001 361.1 17.0003 363.4 17.8003C367.1 19.1003 368.6 20.9003 368.7 23.8003C368.7 27.4003 365.9 30 360.3 30C357.8 30 355.5 29.4002 354.1 28.7002L355 24.3003Z" fill="white"/>
<path d="M102.301 57.3003L103.601 47.5C103.801 45.8 104.201 43.1004 104.601 41.4004H104.5C103.7 43.2004 102.701 45.4002 101.701 47.2002L96.3005 57.2002H94.6006L93.3005 47.4004C93.0005 45.3004 92.8006 43.2003 92.7006 41.3003H92.6006C92.2006 43.0003 91.6006 45.7004 91.2006 47.4004L88.7006 57.2002H86.6006L91.3005 39H94.2006L95.6006 49.4004C95.8006 50.9004 96.0005 52.6004 96.0005 53.9004H96.1006C96.7006 52.6004 97.4006 50.9004 98.2006 49.4004L103.801 38.9004H106.701L104.401 57.1001H102.301V57.3003Z" fill="white"/>
<path d="M117.401 56.6001C116.401 57.2001 114.801 57.6001 113.101 57.6001C109.701 57.6001 108.101 55.3004 108.101 52.4004C108.101 48.5004 111.001 44 115.201 44C117.701 44 119 45.5003 119 47.3003C119 50.7003 115.101 51.6001 110.301 51.6001C110.201 52.2001 110.301 53.4001 110.601 54.1001C111.101 55.3001 112.2 55.9004 113.5 55.9004C115 55.9004 116.2 55.4 117 55L117.401 56.6001ZM115 45.8003C112.9 45.8003 111.301 47.9004 110.701 49.9004C114.201 49.9004 117 49.5004 117 47.4004C117 46.4004 116.2 45.8003 115 45.8003Z" fill="white"/>
<path d="M134.101 38.2002L131.201 53.2002C130.901 54.5002 130.701 56.1003 130.601 57.3003H128.601L129 54.7002H128.901C127.701 56.6002 126.101 57.6001 124.201 57.6001C121.701 57.6001 120.301 55.5004 120.301 52.9004C120.301 48.3004 123.701 44 128.401 44C129.201 44 130.201 44.2 130.701 44.5L131.901 38.2002H134.101ZM130.401 46.4004C129.901 46.1004 129.201 45.9004 128.201 45.9004C125.101 45.9004 122.601 49.2002 122.601 52.7002C122.601 54.3002 123.101 55.9004 125.101 55.9004C126.801 55.9004 128.9 53.9 129.5 51L130.401 46.4004Z" fill="white"/>
<path d="M143.801 56.6001C142.801 57.2001 141.2 57.6001 139.5 57.6001C136.1 57.6001 134.5 55.3004 134.5 52.4004C134.5 48.5004 137.401 44 141.601 44C144.101 44 145.401 45.5003 145.401 47.3003C145.401 50.7003 141.501 51.6001 136.701 51.6001C136.601 52.2001 136.7 53.4001 137 54.1001C137.5 55.3001 138.601 55.9004 139.901 55.9004C141.401 55.9004 142.601 55.4 143.401 55L143.801 56.6001ZM141.301 45.8003C139.201 45.8003 137.6 47.9004 137 49.9004C140.5 49.9004 143.301 49.5004 143.301 47.4004C143.301 46.4004 142.501 45.8003 141.301 45.8003Z" fill="white"/>
<path d="M146.601 57.3003L150.201 38.2002H152.401L148.701 57.3003H146.601Z" fill="white"/>
<path d="M152.801 57.3003L156.401 38.2002H158.601L154.901 57.3003H152.801Z" fill="white"/>
<path d="M159 57.3003L161.5 44.3003H163.701L161.201 57.3003H159ZM166.901 38.9004L163.301 42.8003H161.5L164.101 38.9004H166.901Z" fill="white"/>
<path d="M165.101 57.3003L166.901 48.1001C167.201 46.6001 167.4 45.4003 167.5 44.3003H169.5L169.2 46.9004H169.301C170.501 45.1004 172.201 44 174.101 44C175.701 44 177.401 44.9001 177.401 47.6001C177.401 48.2001 177.3 49.0002 177.2 49.7002L175.7 57.3003H173.5L174.901 49.8003C175.001 49.3003 175.101 48.7001 175.101 48.1001C175.101 46.8001 174.601 45.8003 173.101 45.8003C171.501 45.8003 169.2 47.7004 168.7 50.9004L167.5 57.2002H165.101V57.3003Z" fill="white"/>
</svg>
