<svg width="369" height="60" viewBox="0 0 369 60" fill="none" xmlns="http://www.w3.org/2000/svg">
<path d="M93.5 2.8999V29.5H87.5V2.8999H93.5Z" fill="#00307B"/>
<path d="M98.8 3.2998C100.7 2.9998 103.3 2.69971 106.9 2.69971C110.6 2.69971 113.3 3.3998 115 4.7998C116.7 6.0998 117.8 8.4 117.8 11C117.8 13.6 116.9 15.7998 115.4 17.2998C113.3 19.1998 110.3 20.0996 106.7 20.0996C105.9 20.0996 105.2 20.1 104.6 20V29.5H98.6001V3.2998H98.8ZM104.7 15.3999C105.2 15.4999 105.8 15.5996 106.7 15.5996C109.9 15.5996 111.9 13.9998 111.9 11.2998C111.9 8.8998 110.2 7.3999 107.2 7.3999C106 7.3999 105.1 7.49961 104.7 7.59961V15.3999Z" fill="#00307B"/>
<path d="M127.7 2.8999V18.1997C127.7 22.7997 129.4 25.0996 132.5 25.0996C135.7 25.0996 137.4 22.8997 137.4 18.1997V2.8999H143.4V17.7998C143.4 25.9998 139.3 29.8999 132.3 29.8999C125.6 29.8999 121.6 26.1997 121.6 17.6997V2.7998H127.7V2.8999Z" fill="#00307B"/>
<path d="M168.2 28.7998C167.1 29.3998 164.6 29.8999 161.4 29.8999C152.2 29.8999 147.5 24.1996 147.5 16.5996C147.5 7.49961 154 2.5 162 2.5C165.1 2.5 167.5 3.09971 168.6 3.69971L167.4 8.5C166.2 8 164.5 7.5 162.3 7.5C157.5 7.5 153.8 10.3998 153.8 16.2998C153.8 21.5998 157 25 162.3 25C164.1 25 166.1 24.5996 167.3 24.0996L168.2 28.7998Z" fill="#00307B"/>
<path d="M180.1 2.8999H186.1V24.5H196.7V29.5996H180.1V2.8999Z" fill="#00307B"/>
<path d="M200.3 2.8999H206.3V24.5H216.9V29.5996H200.3V2.8999Z" fill="#00307B"/>
<path d="M231.5 29.5996L231.1 27.6997H231C229.7 29.1997 227.8 30.0996 225.5 30.0996C221.6 30.0996 219.3 27.2997 219.3 24.1997C219.3 19.1997 223.8 16.7998 230.6 16.7998V16.5C230.6 15.5 230 14 227.1 14C225.1 14 223 14.7 221.8 15.5L220.7 11.5996C222 10.7996 224.7 9.8999 228.2 9.8999C234.6 9.8999 236.7 13.6997 236.7 18.1997V24.8999C236.7 26.7999 236.8 28.4996 237 29.5996H231.5ZM230.7 20.3999C227.5 20.3999 225.1 21.0999 225.1 23.3999C225.1 24.8999 226.1 25.6997 227.5 25.6997C229 25.6997 230.2 24.7 230.6 23.5C230.7 23.2 230.7 22.8 230.7 22.5V20.3999Z" fill="#00307B"/>
<path d="M241.3 16.3999C241.3 13.9999 241.2 11.8997 241.1 10.1997H246.3L246.6 12.7998H246.7C247.5 11.5998 249.5 9.69971 252.7 9.69971C256.7 9.69971 259.6 12.3 259.6 18V29.5H253.6V18.7998C253.6 16.2998 252.7 14.5996 250.6 14.5996C248.9 14.5996 248 15.6999 247.6 16.8999C247.4 17.2999 247.4 17.7999 247.4 18.3999V29.5H241.4V16.3999H241.3Z" fill="#00307B"/>
<path d="M275.5 29.5996L275.1 27.6997H275C273.7 29.1997 271.8 30.0996 269.5 30.0996C265.6 30.0996 263.3 27.2997 263.3 24.1997C263.3 19.1997 267.8 16.7998 274.6 16.7998V16.5C274.6 15.5 274 14 271.1 14C269.1 14 267 14.7 265.8 15.5L264.7 11.5996C266 10.7996 268.7 9.8999 272.2 9.8999C278.6 9.8999 280.7 13.6997 280.7 18.1997V24.8999C280.7 26.7999 280.8 28.4996 281 29.5996H275.5ZM274.8 20.3999C271.6 20.3999 269.2 21.0999 269.2 23.3999C269.2 24.8999 270.2 25.6997 271.6 25.6997C273.1 25.6997 274.3 24.7 274.7 23.5C274.8 23.2 274.8 22.8 274.8 22.5V20.3999Z" fill="#00307B"/>
<path d="M304.1 1.5V23.7998C304.1 25.9998 304.2 28.2996 304.3 29.5996H299L298.7 26.7998H298.6C297.4 28.9998 295 30.0996 292.6 30.0996C288 30.0996 284.3 26.1997 284.3 20.1997C284.3 13.6997 288.3 9.8999 293 9.8999C295.4 9.8999 297.2 10.6996 298.1 12.0996H298.2V1.59961H304.1V1.5ZM298.1 18.3999C298.1 18.0999 298.1 17.5998 298 17.2998C297.6 15.6998 296.3 14.2998 294.5 14.2998C291.8 14.2998 290.4 16.6998 290.4 19.7998C290.4 23.0998 292 25.0996 294.5 25.0996C296.2 25.0996 297.6 23.8997 298 22.1997C298.1 21.7997 298.2 21.2998 298.2 20.7998V18.3999H298.1Z" fill="#00307B"/>
<path d="M315.1 4.8999C315.1 6.5999 313.8 7.8999 311.9 7.8999C310 7.8999 308.7 6.5999 308.8 4.8999C308.8 3.1999 310 1.8999 312 1.8999C314 1.8999 315 3.0999 315.1 4.8999ZM308.9 29.5996V10.2998H314.9V29.5996H308.9Z" fill="#00307B"/>
<path d="M326.4 4.69971V10.1997H330.7V14.5996H326.4V21.5996C326.4 23.8996 327 25 328.8 25C329.6 25 330.1 24.8998 330.6 24.7998V29.2998C329.8 29.5998 328.4 29.7998 326.7 29.7998C324.8 29.7998 323.1 29.0996 322.2 28.0996C321.1 26.9996 320.5 25.0999 320.5 22.3999V14.5H317.9V10.0996H320.5V5.8999L326.4 4.69971Z" fill="#00307B"/>
<path d="M345.2 29.5996L344.8 27.6997H344.7C343.4 29.1997 341.5 30.0996 339.2 30.0996C335.3 30.0996 333 27.2997 333 24.1997C333 19.1997 337.5 16.7998 344.3 16.7998V16.5C344.3 15.5 343.7 14 340.8 14C338.8 14 336.7 14.7 335.5 15.5L334.4 11.5996C335.7 10.7996 338.4 9.8999 341.9 9.8999C348.3 9.8999 350.4 13.6997 350.4 18.1997V24.8999C350.4 26.7999 350.5 28.4996 350.7 29.5996H345.2ZM344.5 20.3999C341.3 20.3999 338.9 21.0999 338.9 23.3999C338.9 24.8999 339.9 25.6997 341.3 25.6997C342.8 25.6997 344 24.7 344.4 23.5C344.5 23.2 344.5 22.8 344.5 22.5V20.3999Z" fill="#00307B"/>
<path d="M355 24.2998C356.1 24.9998 358.4 25.7998 360.2 25.7998C362 25.7998 362.8 25.1997 362.8 24.1997C362.8 23.1997 362.2 22.7 360 22C356 20.7 354.5 18.4997 354.5 16.1997C354.5 12.5997 357.6 9.8999 362.4 9.8999C364.7 9.8999 366.7 10.4 367.9 11L366.8 15.0996C365.9 14.5996 364.3 14 362.6 14C361.1 14 360.3 14.5996 360.3 15.5996C360.3 16.4996 361.1 16.9998 363.4 17.7998C367.1 19.0998 368.6 20.8998 368.7 23.7998C368.7 27.3998 365.9 30 360.3 30C357.8 30 355.5 29.3997 354.1 28.6997L355 24.2998Z" fill="#00307B"/>
<path d="M28.2001 57.6997C29.0001 57.8997 29.8001 58.0997 30.7001 58.1997C31.6001 58.2997 32.7001 58.2998 34.2001 58.2998C35.7001 58.2998 37.1001 57.8996 38.6001 57.0996C40.1001 56.2996 41.3001 55.3999 42.2001 54.3999C43.1001 53.3999 43.9001 52.1999 44.6001 50.8999C45.5001 49.3999 46.1 47.8999 46.5 46.3999L48.1001 46.8999C46.9001 50.7999 45 53.8996 42.5 56.0996C39.9 58.3996 36.9 59.5 33.5 59.5C30.8 59.5 28.9 59.2999 27.9 58.8999C26.9 58.4999 26.1001 58.2996 25.7001 58.0996C25.2001 57.9996 24.6 57.5996 23.9 57.0996C23.1 56.4996 22.7001 56.1996 22.6001 56.0996C22.2001 55.7996 21.3 54.8999 19.8 53.3999C16.9 55.0999 13.7 56 10.4 56C7.00002 56 4.40007 55.4999 2.70007 54.3999C0.900073 53.2999 0 51.9999 0 50.3999C0 48.7999 0.7 47.5 2 46.5C3.3 45.5 5.30002 45 7.90002 45C11.5 45 14.7 46.3 17.5 49C18 47.3 18.5 45.3999 18.9 43.3999L23.5 16.8999C24.6 10.0999 27.0001 5.39961 30.6001 3.09961C33.8001 0.999609 37.4 0 41.5 0C45.6 0 48.9 1.2 51.5 3.5C54.1 5.8 55.4 9.5 55.4 14.5H53.8C53.8 10.4 52.8 7.29971 50.9 5.19971C49 3.09971 46.5 2 43.5 2C38.1 2 34.8 5.39961 33.8 12.0996C33.8 12.7996 33.2001 16.5999 32.1001 23.3999C30.9001 30.1999 29.9 35.7997 29 40.1997C28 45.4997 25.5 49.6996 21.3 52.5996C23.8 55.0996 25.6 56.4998 26.8 56.7998C26.8 57.2998 27.4001 57.4997 28.2001 57.6997ZM12.5 47.6997C11.2 46.9997 9.60007 46.5996 7.70007 46.5996C5.80007 46.5996 4.30007 46.9997 3.20007 47.6997C2.10007 48.3997 1.5 49.3997 1.5 50.6997C1.5 51.9997 2.20007 52.9998 3.70007 53.7998C5.20007 54.5998 6.90002 55 8.90002 55C10.9 55 12.7001 54.8 14.2001 54.5C15.1001 53.7 15.9001 52.3998 16.6001 50.7998C15.2001 49.3998 13.8 48.3997 12.5 47.6997Z" fill="#FBBA00"/>
<path d="M66.1001 43.3999C65.5001 44.1999 64.7001 44.9 63.7001 45.5C62.7001 46.1 61.3001 46.5 59.7001 46.5C58.1001 46.5 56.7 45.9999 55.5 44.8999C54.4 43.8999 53.8 42.4 53.8 40.5C53.8 40.1 53.8 39.4997 53.9 38.6997L58.3 14.0996C59.1 9.59961 60.3001 6.3999 61.7001 4.3999C63.1001 2.3999 65 1.5 67.4 1.5C69 1.5 70.4 2.0998 71.5 3.2998C72.6 4.4998 73.1001 6.3999 73.1001 8.8999C73.1001 11.3999 72.1001 14.9996 70.2001 19.5996C68.3001 24.2996 67.3 27.6998 67.3 29.7998H66.1001C66.1001 27.3998 67.1 23.8999 69 19.3999C70.9 14.8999 71.9 11.2996 71.9 8.59961C71.9 6.99961 71.5 5.4999 70.8 4.3999C70 3.1999 69.1 2.59961 68 2.59961C68 3.79961 67.2001 9.09961 65.6001 18.5996C64.1001 28.0996 62.6 36.9 61 45C62.3 45 63.5001 44.3 64.6001 43C65.7001 41.7 66.5 40.4 66.9 39L67.7001 36.8999L68.9 37.3999C68.8 37.9999 68.4 38.9997 67.8 40.1997C67.3 41.5997 66.7001 42.5999 66.1001 43.3999Z" fill="#FBBA00"/>
<path d="M102.301 57.2998L103.601 47.5C103.801 45.8 104.201 43.0999 104.601 41.3999H104.5C103.7 43.1999 102.701 45.3997 101.701 47.1997L96.3005 57.1997H94.6006L93.3005 47.3999C93.0005 45.2999 92.8006 43.1998 92.7006 41.2998H92.6006C92.2006 42.9998 91.6006 45.6999 91.2006 47.3999L88.7006 57.1997H86.6006L91.3005 39H94.2006L95.6006 49.3999C95.8006 50.8999 96.0005 52.5999 96.0005 53.8999H96.1006C96.7006 52.5999 97.4006 50.8999 98.2006 49.3999L103.801 38.8999H106.701L104.401 57.0996H102.301V57.2998Z" fill="#00307B"/>
<path d="M117.401 56.5996C116.401 57.1996 114.801 57.5996 113.101 57.5996C109.701 57.5996 108.101 55.2999 108.101 52.3999C108.101 48.4999 111.001 44 115.201 44C117.701 44 119 45.4998 119 47.2998C119 50.6998 115.101 51.5996 110.301 51.5996C110.201 52.1996 110.301 53.3996 110.601 54.0996C111.101 55.2996 112.2 55.8999 113.5 55.8999C115 55.8999 116.2 55.4 117 55L117.401 56.5996ZM115 45.7998C112.9 45.7998 111.301 47.8999 110.701 49.8999C114.201 49.8999 117 49.4999 117 47.3999C117 46.3999 116.2 45.7998 115 45.7998Z" fill="#00307B"/>
<path d="M134.101 38.1997L131.201 53.1997C130.901 54.4997 130.701 56.0998 130.601 57.2998H128.601L129 54.6997H128.901C127.701 56.5997 126.101 57.5996 124.201 57.5996C121.701 57.5996 120.301 55.4999 120.301 52.8999C120.301 48.2999 123.701 44 128.401 44C129.201 44 130.201 44.2 130.701 44.5L131.901 38.1997H134.101ZM130.401 46.3999C129.901 46.0999 129.201 45.8999 128.201 45.8999C125.101 45.8999 122.601 49.1997 122.601 52.6997C122.601 54.2997 123.101 55.8999 125.101 55.8999C126.801 55.8999 128.9 53.9 129.5 51L130.401 46.3999Z" fill="#00307B"/>
<path d="M143.801 56.5996C142.801 57.1996 141.2 57.5996 139.5 57.5996C136.1 57.5996 134.5 55.2999 134.5 52.3999C134.5 48.4999 137.401 44 141.601 44C144.101 44 145.401 45.4998 145.401 47.2998C145.401 50.6998 141.501 51.5996 136.701 51.5996C136.601 52.1996 136.7 53.3996 137 54.0996C137.5 55.2996 138.601 55.8999 139.901 55.8999C141.401 55.8999 142.601 55.4 143.401 55L143.801 56.5996ZM141.301 45.7998C139.201 45.7998 137.6 47.8999 137 49.8999C140.5 49.8999 143.301 49.4999 143.301 47.3999C143.301 46.3999 142.501 45.7998 141.301 45.7998Z" fill="#00307B"/>
<path d="M146.601 57.2998L150.201 38.1997H152.401L148.701 57.2998H146.601Z" fill="#00307B"/>
<path d="M152.801 57.2998L156.401 38.1997H158.601L154.901 57.2998H152.801Z" fill="#00307B"/>
<path d="M159 57.2998L161.5 44.2998H163.701L161.201 57.2998H159ZM166.901 38.8999L163.301 42.7998H161.5L164.101 38.8999H166.901Z" fill="#00307B"/>
<path d="M165.101 57.2998L166.901 48.0996C167.201 46.5996 167.4 45.3998 167.5 44.2998H169.5L169.2 46.8999H169.301C170.501 45.0999 172.201 44 174.101 44C175.701 44 177.401 44.8996 177.401 47.5996C177.401 48.1996 177.3 48.9997 177.2 49.6997L175.7 57.2998H173.5L174.901 49.7998C175.001 49.2998 175.101 48.6996 175.101 48.0996C175.101 46.7996 174.601 45.7998 173.101 45.7998C171.501 45.7998 169.2 47.6999 168.7 50.8999L167.5 57.1997H165.101V57.2998Z" fill="#00307B"/>
</svg>
