<svg width="597" height="116" viewBox="0 0 597 116" fill="none" xmlns="http://www.w3.org/2000/svg">
<mask id="mask0_5_437" style="mask-type:luminance" maskUnits="userSpaceOnUse" x="0" y="0" width="597" height="116">
<path d="M597 0H0V116H597V0Z" fill="white"/>
</mask>
<g mask="url(#mask0_5_437)">
<path d="M26.2784 0H0.440238C0.241864 0 0.0744859 0.160306 0.0744859 0.363772V4.57489C0.0744859 11.3016 5.56076 16.7582 12.3303 16.7582H25.5779C30.0785 16.8445 33.7856 20.6178 33.7856 25.1804C33.7856 29.743 29.905 33.5163 25.5779 33.5163H6.16208C2.81452 33.5225 0.0744859 36.2415 0.0744859 39.6634V58.0123C0.0744859 58.1541 0.0930834 58.2898 0.0930834 58.4316C0.0620875 58.4316 0.0248924 58.4316 -0.00610352 58.4316C0.0806851 60.2381 0.57662 61.9337 1.37012 63.4504C3.37865 67.4457 7.51971 70.1894 12.3179 70.1894H16.4651C16.6697 70.1894 16.8309 70.0291 16.8309 69.8257V50.2683H25.9189C36.6807 50.0032 45.7687 43.073 49.1224 33.5102C50.0895 30.8774 50.6226 28.0721 50.6226 25.0879C50.6226 22.1038 50.0895 19.3847 49.1224 16.752C45.7749 7.2816 36.8666 0.437759 26.2784 0Z" fill="white"/>
<path d="M95.356 0H59.4504V56.2736C59.4132 56.2736 59.3822 56.2736 59.345 56.2736V59.8065C59.345 61.6377 59.8347 63.3456 60.684 64.8315C62.4198 68.0253 65.8107 70.1894 69.7162 70.1894H101.543V53.5176H76.2191V43.4245H101.543V26.7526H76.2191V16.6595H101.543V6.14096C101.537 2.71904 98.7098 0 95.356 0Z" fill="white"/>
<path d="M237.665 0.7892L218.608 22.8128L199.552 0.7892C199.112 0.265122 198.492 0 197.872 0H182.783V53.382C182.746 53.382 182.709 53.382 182.678 53.382V70.0168H182.783V70.1956H199.546V26.3272L213.928 42.999C216.401 45.8044 220.809 45.8044 223.282 42.999L229.723 35.6311L237.665 26.3272V52.7715C237.627 52.7715 237.596 52.7715 237.559 52.7715V70.023H237.665V70.2018H254.427V0H239.431C238.725 0 238.105 0.265122 237.665 0.7892Z" fill="white"/>
<path d="M300.041 0.086319C297.48 0.086319 295.273 1.66472 294.393 3.85968L294.306 3.946L271.512 52.5804C271.45 52.5804 271.382 52.5804 271.32 52.5804L263.143 70.0168H263.335L263.248 70.1956H280.947L300.251 28.8674L311.125 52.5496H311.1L319.122 70.0168H319.146L319.227 70.1956H336.74L336.92 70.1093L305.682 3.68704C304.709 1.5784 302.595 0.0924846 300.034 0.0924846" fill="white"/>
<path d="M411.204 0H400.616V44.8364L363.65 2.10864C362.504 0.7892 360.737 0 358.97 0H345.735V52.6976C345.698 52.6976 345.667 52.6976 345.629 52.6976V70.0168H345.735V70.1956H362.497V26.3272L400.436 70.2018H417.379V6.14096C417.379 2.71904 414.645 0 411.204 0Z" fill="white"/>
<path d="M466.52 0H430.614V53.7334C430.577 53.7334 430.546 53.7334 430.509 53.7334V70.023H430.614V70.2018H472.7V53.5299H447.377V43.4368H472.7V26.765H447.377V16.6718H472.7V6.14096C472.694 2.71904 469.867 0 466.52 0Z" fill="white"/>
<path d="M518.661 16.4992C522.368 16.4992 525.455 17.7262 528.542 18.9531C531.016 20.7966 534.01 20.1801 535.863 18.3366L543.891 10.3521C537.717 3.68088 529.156 0 519.275 0C499.071 0 483.722 16.4992 483.722 36.593C483.722 54.9295 499.604 70.2018 518.128 70.2018C528.536 70.2018 537.717 66.601 543.891 59.8497L543.749 59.7079C543.749 59.7079 543.774 59.6832 543.786 59.6709L540.637 56.5387C540.637 56.5387 540.587 56.5387 540.562 56.5387L535.863 51.8652C534.01 50.0217 531.01 49.4051 528.542 51.2486C526.069 52.4756 522.368 53.795 519.281 53.795C508.252 53.795 500.931 44.3185 500.931 34.2254C500.931 24.1322 508.872 16.4992 518.667 16.4992" fill="white"/>
<path d="M597 16.6718V6.14096C597 2.71904 594.179 0 590.826 0H554.92V57.0197C554.883 57.0197 554.852 57.0197 554.814 57.0197V70.023H554.92V70.2018H597.006V53.5299H571.689V43.4368H597.006V26.765H571.689V16.6718H597.006H597Z" fill="white"/>
<path d="M173.856 70.0168L157.552 53.8012C157.552 53.8012 157.503 53.8012 157.484 53.8012L152.085 48.431C160.819 44.3925 166.82 35.7051 166.82 25.5318C166.907 11.4927 154.912 0.086319 140.796 0.086319H114.772V16.7582H140.889C145.656 16.7582 149.797 20.4452 149.977 25.2729C150.244 30.3595 146.183 34.4843 141.069 34.4843H120.952C117.555 34.4843 114.778 37.2465 114.778 40.6253V54.7137C114.741 54.7137 114.71 54.7137 114.673 54.7137V59.9483C114.673 61.7549 115.156 63.4442 115.993 64.9055C117.704 68.0561 121.052 70.1956 124.901 70.1956H131.541V51.1562L150.684 70.1956H173.974L173.794 70.0168H173.869H173.856Z" fill="white"/>
<path d="M221.602 81.4355H222.774C223.177 81.4355 223.4 81.4787 223.512 81.5095C223.549 81.6637 223.617 82.0028 223.617 82.6995V106.708C223.617 109.767 223.078 111.154 222.625 111.783C222.036 112.597 221.224 112.979 220.052 112.979C219.371 112.979 219.092 112.911 218.999 112.88L217.635 112.43L217.319 115.087L218.217 115.39C219.426 115.797 220.629 116 221.794 116C223.09 116 224.255 115.71 225.247 115.137C226.227 114.57 227.027 113.805 227.628 112.868C228.217 111.943 228.595 110.87 228.762 109.668C228.911 108.57 228.985 106.974 228.985 104.785V82.6008C228.985 81.9781 229.06 81.6637 229.109 81.5218C229.209 81.491 229.426 81.4479 229.829 81.4479H231V78.8521H221.608V81.4479L221.602 81.4355Z" fill="white"/>
<path d="M305.205 81.4355H306.376C306.637 81.4355 306.86 81.4725 307.021 81.5342C307.058 81.6452 307.108 81.9041 307.108 82.4097V97.8731L289.13 78.8336H282.522V81.4849L283.749 81.4294C285.293 81.3615 285.541 81.9164 285.621 82.0952C285.987 82.9214 286.173 84.0374 286.173 85.4123V103.052C286.173 103.965 286.105 104.409 286.068 104.581C285.95 104.606 285.727 104.643 285.33 104.643H283.266C282.888 104.643 282.485 104.544 282.131 103.811C281.734 102.978 281.58 102.627 281.53 102.479L271.797 78.439H269.739L259.938 103.021C259.455 104.23 259.176 104.476 259.169 104.483C259.014 104.594 258.81 104.643 258.537 104.643H256.863C256.367 104.643 256.194 104.581 256.206 104.581C256.175 104.557 256.163 104.55 256.163 104.55C256.15 104.507 256.095 104.224 256.095 103.256V82.0213C256.095 81.7746 256.113 81.6143 256.132 81.5157C256.262 81.4849 256.504 81.4355 256.925 81.417L258.029 81.3554V78.8213H248.78V81.417H250.199C250.398 81.417 250.509 81.4417 250.571 81.4602C250.627 81.6575 250.72 82.1816 250.72 83.4394V100.648C248.817 102.719 246.734 103.73 244.353 103.73C242.841 103.73 241.52 103.2 240.324 102.115C239.171 101.073 238.588 99.1987 238.588 96.5598V82.2371C238.588 81.8301 238.625 81.6082 238.656 81.4972C238.768 81.4663 239.004 81.417 239.425 81.417H240.597V78.8213H231.292V81.417H232.463C232.811 81.417 233.021 81.4417 233.145 81.4664C233.176 81.6267 233.213 81.9164 233.213 82.4282V98.0457C233.213 100.925 234.106 103.231 235.861 104.908C237.603 106.567 239.952 107.411 242.853 107.411C245.754 107.411 248.414 106.511 250.714 104.735V107.239H263.596V104.643H262.939C262.97 104.557 263.007 104.458 263.05 104.347L266.726 95.2342H272.839L276.292 103.755L276.323 103.872C276.366 104.008 276.422 104.137 276.49 104.248L276.589 104.495H276.602C276.62 104.55 276.639 104.6 276.657 104.643H275.963V107.239H291.535V104.803L290.537 104.655C290.11 104.594 289.862 104.538 289.725 104.507C289.7 104.415 289.645 104.137 289.645 103.527V87.1819L310.561 109.335V82.6502C310.561 81.9411 310.654 81.6452 310.691 81.5588C310.759 81.5218 310.976 81.4417 311.478 81.4294L312.613 81.3924V78.8336H305.198V81.4294L305.205 81.4355ZM267.923 92.1884L269.745 87.6258L271.568 92.1884H267.923Z" fill="white"/>
<path d="M330.832 104.575C330.801 104.433 330.764 104.162 330.764 103.681V78.3959H328.972L323.436 81.8178V84.6355L325.141 83.7723C325.34 83.6736 325.495 83.6058 325.612 83.5565C325.619 83.6736 325.625 83.8093 325.625 83.9696V103.422C325.625 104.144 325.538 104.452 325.488 104.587C325.302 104.624 324.986 104.661 324.503 104.661H323.331V107.257H333.027V104.661H331.855C331.297 104.661 330.993 104.618 330.838 104.581" fill="white"/>
<path d="M351.519 83.4517L353.068 77.9704L351.333 78.1739L350.378 78.3096L350.142 78.8028C349.944 78.8275 349.708 78.8398 349.423 78.8398H336.498L334.434 95.08L336.349 94.2045C338.296 93.3105 340.112 92.8604 341.736 92.8604C343.515 92.8604 344.861 93.3352 345.846 94.3155C346.832 95.2958 347.309 96.4981 347.309 97.9964C347.309 99.5809 346.745 100.944 345.592 102.164C344.452 103.367 342.976 103.952 341.079 103.952C339.963 103.952 338.866 103.724 337.812 103.274C336.672 102.787 335.494 102.158 334.303 101.406L332.5 100.265V103.792L332.946 104.144C334.415 105.29 335.853 106.16 337.236 106.727C338.662 107.313 340.205 107.615 341.842 107.615C344.811 107.615 347.353 106.573 349.386 104.526C351.419 102.479 352.448 100.043 352.448 97.2812C352.448 94.519 351.469 92.1021 349.535 90.2709C347.619 88.452 345.146 87.5333 342.189 87.5333C340.906 87.5333 339.709 87.6751 338.612 87.9588L339.213 83.501L351.525 83.464L351.519 83.4517Z" fill="white"/>
<path d="M356.31 93.3167C357.178 93.3167 357.947 93.0084 358.53 92.4165C359.112 91.8308 359.422 91.0724 359.422 90.2339C359.422 89.3953 359.125 88.6616 358.555 88.0697C357.972 87.4655 357.197 87.1449 356.31 87.1449C355.424 87.1449 354.662 87.4717 354.066 88.0944C353.496 88.6925 353.198 89.4323 353.198 90.2339C353.198 91.0354 353.496 91.7506 354.048 92.3487C354.63 92.9837 355.412 93.3167 356.31 93.3167Z" fill="white"/>
<path d="M368.796 87.5148C367.512 87.5148 366.316 87.6566 365.225 87.9403L365.826 83.4825L378.132 83.4455L379.681 77.9643L377.946 78.1677L376.991 78.3034L376.755 78.7966C376.557 78.8213 376.321 78.8336 376.036 78.8336H363.111L361.04 95.0739L362.956 94.1984C364.909 93.3043 366.719 92.8543 368.343 92.8543C370.122 92.8543 371.467 93.329 372.453 94.3093C373.439 95.2897 373.916 96.492 373.916 97.9902C373.916 99.5748 373.352 100.937 372.199 102.158C371.058 103.36 369.583 103.94 367.686 103.94C366.57 103.94 365.467 103.712 364.419 103.262C363.278 102.775 362.101 102.146 360.91 101.394L359.106 100.247V103.169C358.964 102.873 358.79 102.596 358.555 102.349C357.972 101.745 357.197 101.424 356.31 101.424C355.424 101.424 354.655 101.751 354.066 102.374C353.496 102.978 353.198 103.718 353.198 104.52C353.198 105.321 353.527 106.11 354.159 106.708C354.773 107.288 355.517 107.596 356.31 107.596C357.185 107.596 357.953 107.276 358.542 106.678C359.119 106.086 359.422 105.34 359.422 104.52C359.422 104.335 359.404 104.156 359.373 103.983L359.559 104.125C361.028 105.272 362.466 106.141 363.849 106.708C365.274 107.294 366.824 107.596 368.455 107.596C371.424 107.596 373.966 106.554 375.999 104.507C378.032 102.46 379.061 100.025 379.061 97.2627C379.061 94.5005 378.082 92.0836 376.148 90.2462C374.232 88.4273 371.759 87.5087 368.796 87.5087" fill="white"/>
</g>
</svg>
